<?xml version="1.0" standalone="no"?>
<!DOCTYPE svg PUBLIC "-//W3C//DTD SVG 20010904//EN"
 "http://www.w3.org/TR/2001/REC-SVG-20010904/DTD/svg10.dtd">
<svg version="1.0" xmlns="http://www.w3.org/2000/svg"
 width="512.000000pt" height="512.000000pt" viewBox="0 0 512.000000 512.000000"
 preserveAspectRatio="xMidYMid meet">
<metadata>
Created by potrace 1.14, written by Peter Selinger 2001-2017
</metadata>
<g transform="translate(0.000000,512.000000) scale(0.100000,-0.100000)"
fill="#000000" stroke="none">
<path d="M3285 4954 c-97 -24 -181 -76 -233 -145 -29 -37 -42 -47 -57 -43 -11
3 -42 12 -70 20 -33 10 -71 13 -113 9 -155 -14 -266 -104 -316 -257 -20 -62
-27 -73 -52 -81 -48 -16 -112 -65 -143 -110 -42 -62 -60 -122 -57 -199 l2 -68
-901 -1 c-495 0 -908 -2 -917 -4 -123 -23 -212 -102 -252 -219 -15 -45 -16
-140 -14 -1035 l3 -986 24 -47 c44 -87 124 -155 201 -174 19 -4 38 -9 43 -10
4 -1 207 -2 451 -3 l444 -1 -50 -152 c-28 -84 -53 -156 -57 -160 -3 -4 -37 -8
-76 -9 -100 -3 -147 -22 -199 -80 -42 -47 -66 -105 -66 -162 0 -52 30 -125 68
-161 76 -74 58 -71 455 -74 l357 -3 1 -142 c1 -175 3 -186 40 -267 38 -82 109
-152 197 -193 67 -32 67 -32 247 -34 175 -2 185 -1 355 37 l175 39 577 0 c495
1 588 -1 655 -15 43 -9 87 -18 98 -20 11 -2 58 -13 105 -23 69 -16 119 -19
265 -18 174 2 182 3 239 30 114 53 186 131 225 243 20 58 20 76 18 779 -2 685
-3 723 -22 775 -59 169 -187 301 -345 359 -50 18 -239 52 -365 66 -27 3 -61 7
-75 10 -30 5 -108 17 -135 20 -29 3 -116 16 -147 21 l-28 6 0 121 0 121 69 67
c75 73 134 155 171 234 12 28 26 57 30 65 4 8 15 51 25 95 9 44 19 85 20 91 2
6 24 14 49 17 252 35 364 349 189 534 -21 22 -47 45 -58 51 -20 12 -20 12 -1
23 10 7 31 23 46 38 161 159 118 422 -85 520 -55 27 -65 36 -65 66 0 34 -56
138 -96 179 -22 22 -68 53 -104 70 -54 25 -77 30 -145 30 -56 1 -95 -5 -129
-18 -42 -16 -51 -17 -54 -5 -12 35 -130 135 -188 158 -57 23 -182 36 -229 25z"/>
</g>
</svg>
